<?xml version="1.0" encoding="utf-8"?>
<!-- Generator: Adobe Illustrator 16.0.0, SVG Export Plug-In . SVG Version: 6.00 Build 0)  -->
<!DOCTYPE svg PUBLIC "-//W3C//DTD SVG 1.1//EN" "http://www.w3.org/Graphics/SVG/1.1/DTD/svg11.dtd">
<svg version="1.1" id="圖層_1" xmlns="http://www.w3.org/2000/svg" xmlns:xlink="http://www.w3.org/1999/xlink" x="0px" y="0px"
	 width="200px" height="200px" viewBox="0 0 200 200" enable-background="new 0 0 200 200" xml:space="preserve">
<path fill="#00C3A0" d="M111.232,53.729c0.231-0.555,0.613-1.026,1.088-1.384h-2.254C110.572,52.689,110.973,53.17,111.232,53.729z"
	/>
<path fill="#00C3A0" d="M138.305,72.615h0.018c0.064-0.004,0.125-0.019,0.189-0.019L138.305,72.615z"/>
<path fill="#002DEE" d="M77.994,54.986v0.101c0.002-0.035,0.009-0.067,0.013-0.101H77.994z"/>
<path fill="#00DD84" d="M105.396,21.646v0.503c0,1.136-0.336,2.187-0.89,3.089c1.87,0.479,3.265,2.165,3.265,4.184v0.138
	c0,2.059,1.676,3.734,3.732,3.734c2.464,0,4.407,1.943,4.407,4.332v0.139c0,2.059,1.675,3.733,3.733,3.733
	c2.463,0,4.405,1.943,4.405,4.331v1.392c0.38,0.412,0.917,0.674,1.519,0.674c1.143,0,2.068-0.929,2.068-2.061l0.045-1.502
	c0-0.896-0.729-1.625-1.625-1.625c-0.834,0-1.514-0.679-1.514-1.513v-6.691l-0.016-0.459c0-1.166-0.947-2.115-2.113-2.115h-1.621
	c-0.836,0-1.516-0.68-1.516-1.516v-4.916c0-0.835,0.68-1.515,1.516-1.515l0.299-0.015V23.95c1.256-0.149,2.23-1.219,2.23-2.513
	c0-1.396-1.135-2.53-2.529-2.53c-0.836,0-1.516-0.681-1.516-1.517v-1.672l-7.946-0.009
	C108.057,15.709,105.396,18.366,105.396,21.646z"/>
<path fill="#002DEE" d="M116.078,51.656h-1.739c-0.761,0-1.455,0.263-2.019,0.688h5.281
	C117.229,51.926,116.686,51.656,116.078,51.656z"/>
<path fill="#002DEE" d="M77.986,55.152l-0.024,0.437h0.031l0.001-0.502C77.992,55.109,77.987,55.13,77.986,55.152z"/>
<path fill="#F13CFF" d="M110.066,52.346h-2.541c-0.865,0-1.57-0.705-1.57-1.571l0.094-2.109c0-1.169-0.961-2.131-2.145-2.131
	c-1.557,0-2.785-1.23-2.785-2.742V43.71c0-1.182-0.962-2.144-2.143-2.144c-0.803,0-1.514-0.331-2.02-0.855
	c-1.09,3.712-4.516,6.425-8.579,6.425H88.03c-4.57,0-8.331,3.429-8.874,7.85h6.348c1.244,0,2.257,1.012,2.257,2.255v0.167
	c0,1.891,1.537,3.428,3.427,3.428h14.233c3.06,0,5.55-2.489,5.55-5.548v-0.263c0-0.459,0.094-0.896,0.262-1.295
	C110.973,53.17,110.572,52.689,110.066,52.346z"/>
<path fill="#002DEE" d="M119.855,56.344v-0.052h-0.299c-0.807,0-1.463-0.655-1.463-1.45l0.043-1.127c0-0.528-0.205-1.005-0.535-1.37
	h-5.281c-0.475,0.358-0.855,0.829-1.088,1.384c-0.168,0.399-0.262,0.836-0.262,1.295v0.263c0,3.06-2.49,5.548-5.55,5.548H91.189
	c-1.89,0-3.427-1.538-3.427-3.428V57.24c0-1.244-1.013-2.255-2.257-2.255h-6.348c-0.023,0.199-0.038,0.4-0.049,0.603
	c-0.008,0.164-0.024,0.327-0.024,0.495v13.408h2.087c1.374,0,2.491,1.117,2.491,2.489v6.065c0,1.847,1.502,3.35,3.325,3.349h0.001
	l0.076,0.005c1.857,0,3.368-1.51,3.368-3.367c0-1.528,1.242-2.771,2.769-2.771h4.029c1.857,0,3.368-1.511,3.368-3.367
	c0-1.527,1.242-2.77,2.77-2.77h8.738c1.854,0,3.367-1.511,3.367-3.369c0-1.527,1.24-2.769,2.769-2.769l0.299-0.018v-0.013
	c1.619-0.143,2.913-1.437,3.056-3.055l0.021-1.52C121.615,57.348,120.85,56.49,119.855,56.344z"/>
<path fill="#74006B" d="M119.645,41.497c-2.059,0-3.732-1.675-3.732-3.733v-0.139c0-2.389-1.943-4.332-4.407-4.332
	c-2.058,0-3.731-1.675-3.731-3.734v-0.138c0-2.019-1.396-3.705-3.266-4.184c-0.111,0.182-0.234,0.352-0.365,0.521
	c-1.086,1.406-2.77,2.327-4.683,2.327h-0.476c-0.915,0-1.66,0.742-1.66,1.659v8.446c0,0.612-0.062,1.209-0.18,1.787
	c-0.05,0.25-0.116,0.493-0.187,0.734c0.506,0.524,1.217,0.855,2.02,0.855c1.181,0,2.143,0.962,2.143,2.144v0.083
	c0,1.512,1.229,2.742,2.786,2.742c1.183,0,2.144,0.962,2.144,2.131l-0.094,2.109c0,0.866,0.705,1.571,1.569,1.571h2.543h2.252
	c0.563-0.426,1.259-0.689,2.02-0.689h1.739c0.606,0,1.149,0.27,1.524,0.689h0.769c0.864,0,1.569-0.705,1.569-1.571
	c0-0.536,0.438-0.973,0.974-0.973h1.708c0.787,0,1.429-0.641,1.429-1.428V47.22v-1.392C124.051,43.44,122.107,41.497,119.645,41.497
	z"/>
<path fill="none" d="M138.305,72.615h0.018c0.064-0.004,0.125-0.019,0.189-0.019L138.305,72.615z"/>
<path fill="#00C3A0" d="M149.609,20.523h-0.098c-0.637,0-1.152-0.516-1.152-1.153l-0.039-1.153c0-2.757-2.232-4.992-4.991-4.992
	h-5.438c-1.902,0-3.441-1.541-3.441-3.443V9.529c0-2.14-1.674-3.977-3.813-4.015c-2.181-0.042-3.96,1.715-3.96,3.887v0.381
	c0,3.276-2.659,5.937-5.938,5.937l-1.459-0.001v1.672c0,0.836,0.681,1.517,1.517,1.517c1.396,0,2.529,1.134,2.529,2.53
	c0,1.294-0.976,2.364-2.229,2.513v0.017l-0.3,0.015c-0.836,0-1.517,0.68-1.517,1.515v4.916c0,0.836,0.681,1.516,1.517,1.516h1.621
	c1.166,0,2.114,0.949,2.114,2.115l0.015,0.459v6.691c0,0.834,0.679,1.513,1.515,1.513c0.895,0,1.623,0.729,1.623,1.625l-0.043,1.502
	c0,1.132-0.928,2.061-2.068,2.061c-0.602,0-1.141-0.263-1.52-0.674v1.154c0,0.787-0.642,1.428-1.429,1.428h-1.708
	c-0.536,0-0.975,0.438-0.975,0.973c0,0.866-0.703,1.571-1.568,1.571h-0.77c0.33,0.364,0.535,0.842,0.535,1.37l-0.043,1.127
	c0,0.794,0.656,1.45,1.463,1.45h0.299v0.052c0.994,0.146,1.76,1.003,1.76,2.037l-0.021,1.52c-0.143,1.619-1.437,2.912-3.056,3.055
	v0.013l-0.299,0.018c-1.527,0-2.769,1.242-2.769,2.769c0,1.858-1.513,3.369-3.367,3.369h-8.738c-1.526,0-2.77,1.242-2.77,2.77
	c0,1.856-1.51,3.367-3.368,3.367h-4.029c-1.527,0-2.769,1.243-2.769,2.771c0,1.857-1.51,3.367-3.368,3.367l-0.076-0.005h-0.001
	c-1.823,0-3.325-1.502-3.325-3.349V71.98c0-1.373-1.117-2.489-2.491-2.489h-2.087v0.469c0,3.161-2.549,5.735-5.713,5.763
	c-3.164,0.032-5.712,2.602-5.712,5.764v7.284c0,0.998-0.811,1.809-1.809,1.809h-0.21c-3.549,0-6.426,2.874-6.426,6.425v23.72
	c0,1.215-0.984,2.197-2.2,2.197h-0.322c-1.216,0-2.201,0.983-2.201,2.202v0.192v1.406c0,2.629,2.131,4.762,4.762,4.762h0.358
	c1.216,0,2.198,0.982,2.198,2.201v16.017c0,3.334,2.704,6.03,6.032,6.03h1.82c1.216,0,2.233,0.985,2.198,2.201l3.806-24.463
	c0,0,3.589-4.588,4.785-2.394c1.196,2.194,1.196,3.188,1.196,4.387c0,1.196-3.639,24.921-3.639,24.921s-0.929,1.43-3.539,1.596
	c-1.506,0.098-2.295-0.203-2.61-1.082v1.25c0,3.619,2.939,6.558,6.558,6.558h3.425c3.619,0,6.559,2.937,6.559,6.558v12.493
	c0,3.675,3.005,6.795,6.682,6.728c3.563-0.068,6.432-2.979,6.432-6.559V159.29c0-3.618,2.938-6.556,6.557-6.556h3.856
	c3.618,0,6.558-2.938,6.558-6.559v-14.205c0-1.863,1.509-3.373,3.373-3.373h0.832c1.861,0,3.373-1.511,3.373-3.375v-17.56
	c0-2.429,1.971-4.399,4.399-4.399h1.083c2.43,0,4.396-1.97,4.396-4.397V84.825c0,1.794-31.437,61.407-31.437,61.407
	s-1.805,3.588-4.158,1.793c-2.354-1.793-1.557-3.389-1.557-3.389L129.695,81.4c0,0,2.922-1.63,4.586,0
	c1.662,1.63,1.662,1.63,1.662,3.425v-9.662c0-1.352,1.051-2.449,2.379-2.548h-0.02l0.209-0.019c-0.064,0-0.125,0.015-0.189,0.019
	l0.822-0.01c1.416,0,2.566-1.149,2.566-2.567V54.3c0-2.199,1.784-3.983,3.984-3.983h0.074c1.455,0,2.635-1.181,2.635-2.637
	c0-1.456-1.18-2.636-2.635-2.636h-0.074c-0.639,0-1.154-0.516-1.154-1.153L144.52,32.13c0-2.757,2.233-4.992,4.99-4.992h0.098
	c1.83,0,3.31-1.481,3.31-3.307C152.918,22.002,151.436,20.523,149.609,20.523z"/>
<path fill="#5BDD00" d="M134.281,81.4c-1.664-1.63-4.586,0-4.586,0l-30.903,63.237c0,0-0.797,1.596,1.557,3.389
	c2.353,1.795,4.158-1.793,4.158-1.793s31.437-59.613,31.437-61.407C135.943,83.03,135.943,83.03,134.281,81.4z"/>
<path fill="#950092" d="M71.859,157.936c-0.213,1.375-0.23,2.321,0,2.965v-0.397C71.859,160.502,71.845,158.416,71.859,157.936z"/>
<path fill="#950092" d="M74.469,161.982c2.609-0.168,3.539-1.597,3.539-1.597s3.639-23.725,3.639-24.921
	c0-1.197,0-2.191-1.196-4.387c-1.196-2.194-4.785,2.393-4.785,2.393l-3.806,24.463c-0.014,0.481,0,2.567,0,2.567v0.397
	C72.173,161.779,72.963,162.079,74.469,161.982z"/>
<path fill="#00C3A0" d="M138.005,72.696c-1.412,0-2.559,1.146-2.559,2.558v23.625c0,2.421-1.962,4.384-4.384,4.384h-1.079
	c-2.422,0-4.385,1.965-4.385,4.385v17.502c0,1.857-1.507,3.362-3.362,3.362h-0.829c-1.857,0-3.362,1.504-3.362,3.362v14.158
	c0,3.606-2.927,6.536-6.533,6.536h-3.845c-3.608,0-6.534,2.926-6.534,6.532v28.541c0,3.567-2.859,6.468-6.412,6.536
	c-3.664,0.067-6.659-3.042-6.659-6.706v-12.451c0-3.608-2.93-6.534-6.536-6.534h-3.414c-3.607,0-6.536-2.929-6.536-6.537v-1.641
	c0,0-0.014-2.08,0-2.56c0.034-1.21-0.98-2.193-2.192-2.193h-1.814c-3.316,0-6.011-2.688-6.011-6.01v-15.964
	c0-1.214-0.979-2.193-2.191-2.193h-0.356c-2.623,0-4.747-2.125-4.747-4.744v-1.402v-0.193c0-1.214,0.981-2.192,2.193-2.192h0.321
	c1.211,0,2.193-0.981,2.193-2.192v-23.64c0-3.54,2.868-6.404,6.404-6.404h0.209c0.995,0,1.803-0.809,1.803-1.803v-7.259
	c0-3.153,2.541-5.714,5.693-5.746l0,0c3.152-0.027,5.693-2.594,5.693-5.744v-13.83c0-4.922,3.991-8.917,8.917-8.917h0.345
	c4.923,0,8.917-3.992,8.917-8.917v-8.418c0-0.915,0.742-1.654,1.655-1.654h0.474c3.268,0,5.917-2.651,5.917-5.917v-0.5
	c0-3.269,2.652-5.917,5.918-5.917l9.372,0.011c3.269,0,5.919-2.652,5.919-5.917v-0.38c0-2.165,1.773-3.916,3.945-3.874
	c2.133,0.039,3.802,1.869,3.802,4.002v0.251c0,1.896,1.535,3.431,3.431,3.431h5.421c2.748,0,4.974,2.228,4.974,4.975l0.039,1.149
	c0,0.636,0.515,1.15,1.148,1.15h0.099c1.818,0,3.297,1.474,3.297,3.298c0,1.819-1.475,3.296-3.297,3.296h-0.099
	c-2.748,0-4.975,2.227-4.975,4.976l0.022,11.721c0,0.635,0.514,1.149,1.15,1.149h0.073c1.45,0,2.627,1.177,2.627,2.628
	c0,1.451-1.177,2.627-2.627,2.627h-0.073c-2.193,0-3.971,1.778-3.971,3.97v15.684c0,1.413-1.147,2.559-2.559,2.559l-0.839,0.011"/>
<g>
	
		<path fill="none" stroke="#48D4BB" stroke-width="0.8942" stroke-linecap="round" stroke-linejoin="round" stroke-miterlimit="10" d="
		M58.981,105.114h6.794c0.836,0,1.513-0.675,1.513-1.512v0.002c0-0.835,0.676-1.511,1.513-1.511h5.227
		c1.009,0,1.827-0.821,1.827-1.828v-0.014c0-1.008,0.818-1.825,1.826-1.825c1.009,0,1.828,0.818,1.828,1.825v0.014
		c0,1.009,0.819,1.828,1.826,1.828l5.68,0.01c1.257,0,2.273-1.02,2.273-2.276c0-1.257-1.019-2.274-2.273-2.274
		c-1.257,0-2.275-1.019-2.275-2.275v-5.002c0-1.257-1.019-2.275-2.274-2.275H67.385l0.011,0.808c0,0.996-0.808,1.802-1.803,1.802
		h-0.211c-3.538,0-6.403,2.871-6.403,6.406v8.099h0.002V105.114z"/>
	
		<path fill="none" stroke="#48D4BB" stroke-width="0.8942" stroke-linecap="round" stroke-linejoin="round" stroke-miterlimit="10" d="
		M74.03,102.094c1.009,0,1.826-0.819,1.826-1.825v-0.015c0-1.009,0.82-1.827,1.829-1.827c1.007,0,1.827,0.819,1.827,1.827v0.015
		c0,1.007,0.817,1.825,1.824,1.825h8.828c3.059,0,5.541,2.479,5.541,5.54c0,3.06-2.478,5.542-5.541,5.542h-0.838
		c-1.734,0-3.141,1.406-3.141,3.14v3.056c0,1.733-1.404,3.14-3.136,3.14c-1.733,0-3.139-1.406-3.139-3.14v-4.118
		c0-1.732-1.405-3.138-3.139-3.138h-7.188c-1.733,0-3.138,1.405-3.138,3.138v-0.011c0,1.731-1.407,3.14-3.14,3.14h-4.321v-13.266
		h6.793c0.836,0,1.514-0.675,1.514-1.513v0.004c0-0.835,0.676-1.514,1.513-1.514H74.03L74.03,102.094L74.03,102.094z"/>
	
		<path fill="none" stroke="#48D4BB" stroke-width="0.8942" stroke-linecap="round" stroke-linejoin="round" stroke-miterlimit="10" d="
		M69.273,109.361h-0.542c-0.796,0-1.443-0.646-1.443-1.443l0,0c0-0.799,0.646-1.444,1.443-1.444h0.542
		c0.798,0,1.444,0.646,1.444,1.444l0,0C70.718,108.715,70.072,109.361,69.273,109.361z"/>
	
		<path fill="none" stroke="#48D4BB" stroke-width="0.8942" stroke-linecap="round" stroke-linejoin="round" stroke-miterlimit="10" d="
		M84.496,84.511c0-1.689,1.369-3.058,3.058-3.058c1.688,0,3.059-1.372,3.059-3.06c0-1.688,1.37-3.057,3.059-3.057h4.014
		c1.689,0,3.061-1.371,3.061-3.059c0-1.689,1.37-3.059,3.058-3.059h8.655c1.688,0,3.059,1.37,3.059,3.059v29.69
		c0,1.361-1.103,2.46-2.462,2.46l-0.091,0.016c-1.362,0-2.462,1.102-2.462,2.46c0,1.359-1.101,2.461-2.463,2.461l-9.394,0.038
		c-1.754,0-3.172-1.422-3.172-3.172l-0.021-0.122c0-1.754-1.422-3.173-3.174-3.173c-1.753,0-3.172-1.42-3.172-3.172v0.072
		c0-1.257-1.019-2.274-2.275-2.274s-2.274-1.018-2.274-2.275L84.496,84.511z"/>
	
		<path fill="none" stroke="#48D4BB" stroke-width="0.8942" stroke-linecap="round" stroke-linejoin="round" stroke-miterlimit="10" d="
		M121.665,59.994c0,1.688-1.37,3.058-3.06,3.058v0.018c-1.688,0-3.057,1.369-3.057,3.058c0,1.688-1.368,3.059-3.057,3.059h-8.71
		c-1.688,0-3.058,1.369-3.058,3.058c0,1.688-1.371,3.058-3.06,3.058h-4.016c-1.688,0-3.058,1.371-3.058,3.06
		c0,1.688-1.37,3.058-3.059,3.058l-0.052-0.004c-1.681,0-3.042-1.363-3.042-3.042v-4.602v-1.443c0-1.537-1.243-2.779-2.78-2.779
		h-2.883l0.015-13.861h7.188c1.078,0,1.951,0.874,1.951,1.95v0.166c0,2.051,1.665,3.715,3.714,3.715h14.186
		c3.217,0,5.829-2.61,5.829-5.828v-0.262c0-1.688,1.37-3.06,3.058-3.06h1.733c0.97,0,1.755,0.788,1.755,1.754l-0.042,1.113
		c0,0.968,0.787,1.753,1.754,1.753v0.031c0.97,0,1.753,0.787,1.753,1.754v1.216H121.665z"/>
	
		<path fill="none" stroke="#48D4BB" stroke-width="0.8942" stroke-linecap="round" stroke-linejoin="round" stroke-miterlimit="10" d="
		M84.496,86.271c0,0.952-0.771,1.72-1.723,1.72H67.416v-6.433c0-3.153,2.542-5.714,5.693-5.746l0,0
		c3.153-0.027,5.694-2.594,5.694-5.744v-0.422h2.861c1.537,0,2.778,1.242,2.778,2.779L84.496,86.271z"/>
	
		<path fill="none" stroke="#48D4BB" stroke-width="0.8942" stroke-linecap="round" stroke-linejoin="round" stroke-miterlimit="10" d="
		M125.576,117.009c-1.276,0-2.316,1.033-2.316,2.314l-0.014,0.087c0,1.277-1.036,2.316-2.316,2.316
		c-1.276,0-2.316,1.033-2.316,2.313v0.185c0,0.935-0.76,1.694-1.695,1.694s-1.695-0.76-1.695-1.694v-0.185
		c0-1.276-1.034-2.313-2.316-2.313c-1.276,0-2.315-1.036-2.315-2.316l-0.014-0.087c0-1.276-1.035-2.314-2.316-2.314h-0.211
		c-2.111,0-3.824-1.716-3.824-3.826c0-2.114,1.713-3.826,3.824-3.826h0.08c1.36,0,2.46-1.102,2.46-2.461
		c0-1.358,1.102-2.462,2.461-2.462l0.093-0.014c1.36,0,2.461-1.102,2.461-2.46V66.129h0.028c0-1.688,1.369-3.058,3.057-3.058v-0.018
		c1.688,0,3.058-1.37,3.058-3.058v-0.13c0-0.968,0.785-1.754,1.755-1.754h17.644v12.025c0,1.412-1.146,2.558-2.56,2.558
		l-0.839,0.011l0.21-0.011c-1.412,0-2.558,1.146-2.558,2.559v23.623c0,2.419-1.964,4.386-4.385,4.386h-1.079
		c-2.423,0-4.386,1.964-4.386,4.385v9.364h0.026V117.009z"/>
	
		<path fill="none" stroke="#48D4BB" stroke-width="0.8942" stroke-linecap="round" stroke-linejoin="round" stroke-miterlimit="10" d="
		M101.051,175.36h-3.647c-3.439,0-6.225-2.785-6.225-6.225v-14.085c0-1.294,1.05-2.345,2.345-2.345l0.088-0.014
		c1.295,0,2.345-1.051,2.345-2.345c0-1.296,1.05-2.346,2.343-2.346h0.185c0.945,0,1.716-0.767,1.716-1.714
		c0-0.95-0.77-1.716-1.716-1.716H98.3c-1.292,0-2.343-1.051-2.343-2.345l0.094-13.122c0-2.2,1.78-3.984,3.984-3.984
		c2.201,0,3.985-1.781,3.985-3.983l0.026-0.152c0-2.2,1.779-3.983,3.983-3.983h0.116h0.211c1.277,0,2.315,1.033,2.315,2.313
		l0.017,0.086c0,1.276,1.034,2.317,2.315,2.317c1.278,0,2.316,1.033,2.316,2.315v0.184c0,0.937,0.759,1.694,1.695,1.694
		c0.936,0,1.695-0.758,1.695-1.694v-0.184c0-1.276,1.036-2.315,2.316-2.315c1.277,0,2.315-1.034,2.315-2.317l0.014-0.086
		c0-1.276,0.897-2.313,2.175-2.313l0,0v8.136c0,1.857-1.507,3.361-3.363,3.361h-0.826c-1.858,0-3.364,1.507-3.364,3.362v14.158
		c0,3.607-2.926,6.535-6.534,6.535h-3.842c-3.608,0-6.533,2.927-6.533,6.536v16.268h-0.018V175.36z"/>
	
		<path fill="none" stroke="#48D4BB" stroke-width="0.8942" stroke-linecap="round" stroke-linejoin="round" stroke-miterlimit="10" d="
		M149.209,20.796h-0.097c-0.635,0-1.149-0.514-1.149-1.15l-0.037-1.149c0-2.748-2.228-4.975-4.976-4.975h-5.415
		c-1.893,0-3.43-1.537-3.43-3.431V9.84c0-2.135-1.668-3.963-3.801-4.002c-2.172-0.042-3.946,1.709-3.946,3.874v0.38
		c0,3.268-2.652,5.917-5.917,5.917h-1.169v1.913c0,1.001,0.813,1.81,1.811,1.81c1.23,0,2.224,0.994,2.224,2.223
		c0,1.23-0.993,2.224-2.224,2.224v0.015c-1.003,0-1.811,0.811-1.811,1.808V30.9c0,1.001,0.813,1.809,1.811,1.809h1.615
		c1.001,0,1.81,0.812,1.81,1.81l0.016,0.466v6.667c0,0.998,0.806,1.806,1.805,1.806c0.997,0,1.806-0.808,1.806-1.806
		c0-2.271,1.846-4.116,4.116-4.116h0.074c2.271,0,4.114-1.843,4.114-4.116v-0.142c0-2.271,1.844-4.115,4.116-4.115h0.075
		c2.271,0,4.114-1.844,4.114-4.116v-0.142c0-2.271,1.845-4.116,4.115-4.116L149.209,20.796z"/>
	
		<path fill="none" stroke="#48D4BB" stroke-width="0.8942" stroke-linecap="round" stroke-linejoin="round" stroke-miterlimit="10" d="
		M125.166,15.338c0-1.073,0.869-1.943,1.944-1.943h3.02c0.566,0,1.026,0.459,1.026,1.025v3.131c0,0.282,0.229,0.514,0.516,0.514
		h0.232c0.566,0,1.025,0.459,1.025,1.025v0.286c0,0.566,0.459,1.025,1.026,1.025h0.236c0.462,0,0.837,0.373,0.837,0.836v1.122
		c0,0.462-0.375,0.835-0.837,0.835h-0.236c-0.568,0-1.026,0.46-1.026,1.026v0.3c0,0.566-0.459,1.025-1.025,1.025l-0.37-0.034
		c-1.401,0-2.541-1.137-2.541-2.542l0.024-0.265c0-0.355-0.285-0.643-0.641-0.643h-0.188c-0.357,0-0.643-0.287-0.643-0.642v-2.673
		c0-0.567-0.46-1.025-1.027-1.025h-0.3c-0.566,0-1.023-0.459-1.023-1.025L125.166,15.338z"/>
	
		<path fill="none" stroke="#48D4BB" stroke-width="0.8942" stroke-linecap="round" stroke-linejoin="round" stroke-miterlimit="10" d="
		M145.856,14.454l-4.612,4.613c-1.291,1.292-3.384,1.292-4.675,0l0,0c-1.291-1.291-1.291-3.383,0-4.674l0.864-0.864h5.874
		C143.308,13.529,144.68,13.573,145.856,14.454z"/>
	
		<path fill="none" stroke="#48D4BB" stroke-width="0.8942" stroke-linecap="round" stroke-linejoin="round" stroke-miterlimit="10" d="
		M119.327,16.008l-8.354-0.01c-3.271,0-5.917,2.651-5.917,5.917v0.5c0,1.305-0.425,2.513-1.142,3.493l-0.021-0.017
		c2.22,0,4.019,1.797,4.019,4.019v0.138c0,2.22,1.8,4.019,4.018,4.019h0.075c2.22,0,4.021,1.799,4.021,4.019v0.138
		c0,2.22,1.797,4.019,4.02,4.019h0.074c2.219,0,4.017,1.799,4.017,4.02c0,0.974,0.792,1.764,1.766,1.764
		c0.973,0,1.764-0.791,1.764-1.764l0.043-1.488c0-0.728-0.59-1.322-1.32-1.322c-0.999,0-1.809-0.808-1.809-1.807v-6.659
		l-0.013-0.467c0-1.001-0.812-1.81-1.81-1.81h-1.616c-0.999,0-1.808-0.811-1.808-1.809v-4.898c0-1,0.812-1.809,1.808-1.809v-0.015
		c1.23,0,2.224-0.994,2.224-2.223c0-1.229-0.993-2.224-2.224-2.224c-0.999,0-1.808-0.812-1.808-1.81v-1.916H119.327L119.327,16.008z
		"/>
	
		<path fill="none" stroke="#48D4BB" stroke-width="0.8942" stroke-linecap="round" stroke-linejoin="round" stroke-miterlimit="10" d="
		M103.806,25.947c-1.076,1.45-2.806,2.392-4.753,2.392h-0.474c-0.915,0-1.654,0.743-1.654,1.653v8.417l-0.007,0.793v0.084
		c0,1.342,1.09,2.434,2.435,2.434h0.045c1.344,0,2.434,1.091,2.434,2.435v0.083c0,1.342,1.091,2.435,2.433,2.435h0.046
		c1.343,0,2.435,1.09,2.435,2.435l-0.094,2.088c0,0.697,0.566,1.268,1.266,1.268h10.81c0.698,0,1.268-0.566,1.268-1.268
		s0.566-1.267,1.269-1.267h1.701c0.621,0,1.126-0.505,1.126-1.126v-2.538c0-2.22-1.8-4.019-4.019-4.019h-0.075
		c-2.221,0-4.02-1.798-4.02-4.019V38.09c0-2.22-1.796-4.019-4.018-4.019h-0.074c-2.222,0-4.02-1.799-4.02-4.02v-0.138
		c0-2.22-1.799-4.019-4.017-4.019L103.806,25.947z"/>
	
		<path fill="none" stroke="#48D4BB" stroke-width="0.8942" stroke-linecap="round" stroke-linejoin="round" stroke-miterlimit="10" d="
		M78.768,55.696h7.188c1.077,0,1.951,0.874,1.951,1.951v0.165c0,2.051,1.664,3.716,3.714,3.716h14.187
		c3.218,0,5.827-2.61,5.827-5.828v-0.142c0-1.702-1.38-3.083-3.083-3.083l-0.621-0.013c-0.698,0-1.268-0.566-1.268-1.268
		l0.094-2.089c0-1.342-1.091-2.434-2.434-2.434h-0.046c-1.343,0-2.434-1.091-2.434-2.435v-0.082c0-1.343-1.09-2.435-2.434-2.435
		h-0.045c-1.344,0-2.435-1.091-2.435-2.435v-0.083l0.007-0.794h-0.007c0,4.923-3.992,8.918-8.917,8.918H87.67
		c-4.702,0-8.553,3.638-8.895,8.251L78.768,55.696z"/>
	
		<path fill="none" stroke="#48D4BB" stroke-width="0.8942" stroke-linecap="round" stroke-linejoin="round" stroke-miterlimit="10" d="
		M75.451,167.837c0.855,0.414,1.82,0.646,2.835,0.646H81.7c3.605,0,6.534,2.929,6.534,6.536v12.451c0,3.663,2.997,6.775,6.66,6.705
		c3.552-0.065,6.412-2.966,6.412-6.536V175.36h-3.866c-3.44,0-6.226-2.786-6.226-6.227v-14.083c0-1.294,1.049-2.345,2.344-2.345
		l0.09-0.015c1.294,0,2.345-1.051,2.345-2.345c0-1.296,1.049-2.345,2.344-2.345h0.183c0.948,0,1.715-0.768,1.715-1.715
		c0-0.95-0.766-1.715-1.715-1.715h-0.183c-1.295,0-2.344-1.051-2.344-2.345c0-1.684-1.651-1.458-1.651-1.458l-12.592,0.067
		c-1.204,0-2.184,0.975-2.184,2.184v0.363c0,1.204-0.977,2.185-2.187,2.185h-0.233c-1.206,0-2.186,0.978-2.186,2.187v19.83
		L75.451,167.837z"/>
	
		<path fill="none" stroke="#48D4BB" stroke-width="0.8942" stroke-linecap="round" stroke-linejoin="round" stroke-miterlimit="10" d="
		M74.688,167.427c-1.793-1.167-2.973-3.188-2.973-5.479v-1.645c0,0-0.015-2.076,0-2.558c0.034-1.214-0.981-2.194-2.192-2.194h-1.955
		c-3.317,0-6.011-2.689-6.011-6.01v-11.332h12.295c2.593,0,4.695-2.102,4.695-4.693v-4.04c0-2.592,2.103-4.695,4.694-4.695h0.111
		c0.625,0,1.137-0.507,1.137-1.133s-0.507-1.137-1.137-1.137h-0.228c1.734,0,3.139-1.406,3.139-3.14v-3.056
		c0-1.733,1.406-3.14,3.139-3.14h0.838c3.059,0,5.541-2.479,5.541-5.542v-1.409c0,1.755,1.422,3.174,3.172,3.174l9.396-0.037h-0.151
		h-0.081c-2.11,0-3.824,1.712-3.824,3.824s1.714,3.825,3.824,3.825h0.213h-0.249h-0.118c-2.2,0-3.984,1.78-3.984,3.984l-0.024,0.15
		c0,2.201-1.78,3.985-3.985,3.985s-3.985,1.78-3.985,3.984l-0.093,9.366l0.059,0.635c0,0.915-0.742,1.657-1.657,1.657l-12.591,0.078
		c-1.206,0-2.187,0.974-2.187,2.183v0.363c0,1.204-0.975,2.186-2.184,2.186h-0.234c-1.207,0-2.187,0.978-2.187,2.187v19.83
		L74.688,167.427z"/>
	
		<path fill="none" stroke="#48D4BB" stroke-width="0.8942" stroke-linecap="round" stroke-linejoin="round" stroke-miterlimit="10" d="
		M61.563,138.209h12.281c2.593,0,4.695-2.103,4.695-4.694v-4.039c0-2.594,2.116-4.696,4.708-4.696h0.112
		c0.624,0,1.136-0.507,1.136-1.135c0-0.624-0.507-1.136-1.136-1.136c-1.732,0-3.483-1.405-3.483-3.138v-4.118
		c0-1.732-1.404-3.14-3.139-3.14H69.55c-1.733,0-3.138,1.407-3.138,3.14v-0.012c0,1.732-1.405,3.137-3.14,3.137h-4.297v2.273
		c0,1.212-0.98,2.192-2.191,2.192h-0.322c-1.212,0-2.192,0.979-2.192,2.193v0.192v1.403c0,2.621,2.126,4.744,4.746,4.744h0.356
		c1.211,0,2.191,0.981,2.191,2.193V138.209L61.563,138.209z"/>
	
		<path fill="none" stroke="#48D4BB" stroke-width="0.8942" stroke-linecap="round" stroke-linejoin="round" stroke-miterlimit="10" d="
		M123.387,58.113c-2.271,0-4.115-1.843-4.115-4.116s1.845-4.115,4.115-4.115l0.487-0.055c2.271,0,4.116-1.844,4.116-4.116v-4.057
		c0-2.271,1.842-4.115,4.114-4.115h0.075c2.271,0,4.115-1.843,4.115-4.116v-0.142c0-2.27,1.844-4.114,4.114-4.114h0.076
		c2.271,0,4.114-1.843,4.114-4.116v-0.142c0-2.271,1.846-4.115,4.115-4.115l0.339,0.003c1.819,0,3.297,1.473,3.297,3.298
		c0,1.819-1.474,3.296-3.297,3.296h-0.097c-2.749,0-4.976,2.227-4.976,4.976l0.021,11.721c0,0.635,0.516,1.149,1.152,1.149h0.075
		c1.447,0,2.626,1.177,2.626,2.628c0,1.451-1.179,2.627-2.626,2.627h-0.075c-2.192,0-3.972,1.778-3.972,3.97v3.661h-17.796V58.113z"
		/>
	<g>
		
			<path fill="none" stroke="#48D4BB" stroke-width="0.8942" stroke-linecap="round" stroke-linejoin="round" stroke-miterlimit="10" d="
			M97,39.27c0,1.356,1.101,2.459,2.46,2.459c1.358,0,2.459-1.103,2.459-2.459v-0.583c0-0.752,0.611-1.364,1.364-1.364l0.089,0.028
			c0.753,0,1.363-0.611,1.363-1.364V35.5c0-0.752-0.61-1.363-1.363-1.363l-0.089,0.027c-0.753,0-1.364-0.611-1.364-1.363v-0.15
			c0-0.752-0.612-1.364-1.364-1.364h-2.211c-0.752,0-1.364,0.612-1.364,1.364h0.006v5.735L97,39.27z"/>
	</g>
</g>
</svg>
