<?xml version="1.0" encoding="utf-8"?>
<!-- Generator: Adobe Illustrator 16.0.0, SVG Export Plug-In . SVG Version: 6.00 Build 0)  -->
<!DOCTYPE svg PUBLIC "-//W3C//DTD SVG 1.1//EN" "http://www.w3.org/Graphics/SVG/1.1/DTD/svg11.dtd">
<svg version="1.1" id="圖層_1" xmlns="http://www.w3.org/2000/svg" xmlns:xlink="http://www.w3.org/1999/xlink" x="0px" y="0px"
	 width="200px" height="200px" viewBox="0 0 200 200" enable-background="new 0 0 200 200" xml:space="preserve">
<path fill="#00C3A0" d="M151.871,88.612c-1.185,0-2.146,0.961-2.146,2.146v19.815c0,2.03-1.647,3.677-3.677,3.677h-0.906
	c-2.03,0-3.678,1.648-3.678,3.678v14.68c0,1.557-1.263,2.82-2.82,2.82h-0.695c-1.558,0-2.82,1.262-2.82,2.82v11.875
	c0,3.026-2.456,5.482-5.481,5.482h-3.224c-3.025,0-5.481,2.455-5.481,5.48v23.939c0,2.991-2.397,5.424-5.377,5.482
	c-3.073,0.057-5.586-2.552-5.586-5.624v-10.445c0-3.026-2.456-5.481-5.482-5.481h-2.863c-3.026,0-5.482-2.455-5.482-5.481v-1.378
	c0,0-0.012-1.744,0-2.146c0.028-1.016-0.822-1.839-1.839-1.839h-1.521c-2.782,0-5.042-2.255-5.042-5.042v-13.389
	c0-1.018-0.822-1.84-1.838-1.84h-0.299c-2.2,0-3.981-1.783-3.981-3.98v-1.176v-0.162c0-1.018,0.823-1.84,1.839-1.84h0.27
	c1.016,0,1.839-0.822,1.839-1.838v-19.828c0-2.968,2.406-5.371,5.372-5.371h0.176c0.834,0,1.512-0.678,1.512-1.512v-6.089
	c0-2.644,2.131-4.792,4.775-4.819l0,0c2.644-0.023,4.776-2.175,4.776-4.818V74.808c0-4.129,3.347-7.479,7.479-7.479h0.29
	c4.129,0,7.479-3.348,7.479-7.479v-7.06c0-0.767,0.623-1.387,1.387-1.387h0.397c2.742,0,4.963-2.224,4.963-4.963v-0.42
	c0-2.742,2.224-4.963,4.963-4.963l7.862,0.009c2.742,0,4.964-2.224,4.964-4.963v-0.319c0-1.815,1.488-3.284,3.31-3.249
	c1.789,0.032,3.188,1.567,3.188,3.356v0.211c0,1.59,1.288,2.878,2.878,2.878h4.546c2.306,0,4.173,1.868,4.173,4.173l0.032,0.964
	c0,0.533,0.432,0.964,0.964,0.964h0.081c1.526,0,2.766,1.237,2.766,2.766c0,1.526-1.236,2.765-2.766,2.765h-0.081
	c-2.305,0-4.173,1.868-4.173,4.173l0.018,9.831c0,0.533,0.432,0.964,0.965,0.964h0.063c1.216,0,2.203,0.987,2.203,2.204
	s-0.987,2.204-2.203,2.204h-0.063c-1.839,0-3.33,1.491-3.33,3.33v13.155c0,1.185-0.962,2.146-2.146,2.146l-0.703,0.009"/>
<g>
	
		<path fill="none" stroke="#48D4BB" stroke-width="0.75" stroke-linecap="round" stroke-linejoin="round" stroke-miterlimit="10" d="
		M85.589,115.803h5.699c0.701,0,1.269-0.567,1.269-1.268v0.002c0-0.701,0.567-1.268,1.269-1.268h4.384
		c0.846,0,1.532-0.688,1.532-1.532v-0.012c0-0.846,0.686-1.532,1.532-1.532c0.846,0,1.532,0.687,1.532,1.532v0.012
		c0,0.845,0.687,1.532,1.532,1.532l4.763,0.008c1.055,0,1.908-0.854,1.908-1.908c0-1.054-0.854-1.908-1.908-1.908
		c-1.054,0-1.908-0.854-1.908-1.908v-4.195c0-1.055-0.854-1.909-1.908-1.909H92.638l0.009,0.678c0,0.835-0.678,1.512-1.512,1.512
		h-0.177c-2.968,0-5.371,2.407-5.371,5.372v6.793H85.589z"/>
	
		<path fill="none" stroke="#48D4BB" stroke-width="0.75" stroke-linecap="round" stroke-linejoin="round" stroke-miterlimit="10" d="
		M98.212,113.27c0.846,0,1.531-0.688,1.531-1.532v-0.012c0-0.846,0.688-1.532,1.534-1.532c0.845,0,1.531,0.687,1.531,1.532v0.012
		c0,0.845,0.686,1.532,1.531,1.532h7.404c2.566,0,4.648,2.078,4.648,4.646c0,2.566-2.079,4.648-4.648,4.648h-0.703
		c-1.454,0-2.633,1.179-2.633,2.633v2.564c0,1.454-1.178,2.633-2.632,2.633c-1.453,0-2.632-1.179-2.632-2.633v-3.454
		c0-1.454-1.179-2.632-2.633-2.632h-6.029c-1.454,0-2.632,1.178-2.632,2.632v-0.009c0,1.453-1.18,2.633-2.633,2.633h-3.625v-11.126
		h5.698c0.701,0,1.269-0.567,1.269-1.269v0.003c0-0.7,0.567-1.269,1.269-1.269h4.384V113.27z"/>
	
		<path fill="none" stroke="#48D4BB" stroke-width="0.75" stroke-linecap="round" stroke-linejoin="round" stroke-miterlimit="10" d="
		M94.222,119.365h-0.455c-0.668,0-1.21-0.542-1.21-1.211l0,0c0-0.669,0.542-1.211,1.21-1.211h0.455c0.669,0,1.211,0.542,1.211,1.211
		l0,0C95.433,118.823,94.891,119.365,94.222,119.365z"/>
	
		<path fill="none" stroke="#48D4BB" stroke-width="0.75" stroke-linecap="round" stroke-linejoin="round" stroke-miterlimit="10" d="
		M106.99,98.521c0-1.416,1.149-2.565,2.565-2.565s2.565-1.15,2.565-2.566s1.149-2.565,2.565-2.565h3.368
		c1.416,0,2.565-1.149,2.565-2.565s1.149-2.566,2.565-2.566h7.26c1.416,0,2.565,1.15,2.565,2.566v24.903
		c0,1.141-0.924,2.064-2.064,2.064l-0.078,0.012c-1.141,0-2.064,0.924-2.064,2.064s-0.924,2.064-2.065,2.064l-7.879,0.032
		c-1.471,0-2.661-1.192-2.661-2.661l-0.018-0.102c0-1.471-1.193-2.661-2.661-2.661c-1.471,0-2.661-1.192-2.661-2.661v0.061
		c0-1.054-0.854-1.908-1.908-1.908s-1.908-0.854-1.908-1.908L106.99,98.521z"/>
	
		<path fill="none" stroke="#48D4BB" stroke-width="0.75" stroke-linecap="round" stroke-linejoin="round" stroke-miterlimit="10" d="
		M138.165,77.958c0,1.416-1.149,2.565-2.565,2.565v0.015c-1.416,0-2.565,1.149-2.565,2.565s-1.149,2.566-2.565,2.566h-7.304
		c-1.416,0-2.565,1.149-2.565,2.565s-1.149,2.565-2.565,2.565h-3.368c-1.416,0-2.565,1.15-2.565,2.566s-1.149,2.565-2.565,2.565
		l-0.044-0.003c-1.41,0-2.551-1.144-2.551-2.551v-3.86v-1.21c0-1.289-1.042-2.331-2.331-2.331h-2.418l0.012-11.626h6.029
		c0.903,0,1.636,0.733,1.636,1.636v0.139c0,1.72,1.396,3.116,3.116,3.116h11.898c2.698,0,4.888-2.189,4.888-4.888v-0.22
		c0-1.416,1.149-2.566,2.565-2.566h1.454c0.813,0,1.471,0.66,1.471,1.471l-0.034,0.933c0,0.813,0.66,1.471,1.471,1.471v0.026
		c0.813,0,1.471,0.66,1.471,1.471v1.02H138.165z"/>
	
		<path fill="none" stroke="#48D4BB" stroke-width="0.75" stroke-linecap="round" stroke-linejoin="round" stroke-miterlimit="10" d="
		M106.99,99.998c0,0.799-0.646,1.444-1.445,1.444H92.664v-5.397c0-2.644,2.132-4.792,4.775-4.819l0,0
		c2.645-0.023,4.776-2.175,4.776-4.818v-0.354h2.4c1.289,0,2.331,1.042,2.331,2.331L106.99,99.998z"/>
	
		<path fill="none" stroke="#48D4BB" stroke-width="0.75" stroke-linecap="round" stroke-linejoin="round" stroke-miterlimit="10" d="
		M141.446,125.779c-1.071,0-1.943,0.868-1.943,1.942l-0.012,0.072c0,1.071-0.868,1.943-1.942,1.943
		c-1.071,0-1.943,0.868-1.943,1.942v0.154c0,0.784-0.637,1.422-1.422,1.422s-1.422-0.638-1.422-1.422v-0.154
		c0-1.07-0.868-1.942-1.943-1.942c-1.071,0-1.942-0.869-1.942-1.943l-0.012-0.072c0-1.071-0.869-1.942-1.943-1.942h-0.177
		c-1.771,0-3.208-1.438-3.208-3.209c0-1.772,1.437-3.209,3.208-3.209h0.067c1.141,0,2.064-0.924,2.064-2.064
		s0.924-2.064,2.064-2.064l0.078-0.012c1.141,0,2.064-0.924,2.064-2.064V83.104h0.023c0-1.416,1.149-2.565,2.565-2.565v-0.015
		c1.416,0,2.565-1.149,2.565-2.565v-0.11c0-0.811,0.657-1.471,1.472-1.471h14.797v10.086c0,1.184-0.961,2.146-2.146,2.146
		l-0.704,0.009l0.177-0.009c-1.185,0-2.146,0.961-2.146,2.146v19.815c0,2.029-1.647,3.678-3.678,3.678h-0.906
		c-2.03,0-3.678,1.647-3.678,3.678v7.854H141.446L141.446,125.779z"/>
	
		<path fill="none" stroke="#48D4BB" stroke-width="0.75" stroke-linecap="round" stroke-linejoin="round" stroke-miterlimit="10" d="
		M120.875,174.723h-3.058c-2.885,0-5.222-2.337-5.222-5.221v-11.814c0-1.086,0.881-1.967,1.967-1.967l0.075-0.012
		c1.086,0,1.966-0.881,1.966-1.967s0.881-1.966,1.966-1.966h0.154c0.793,0,1.438-0.643,1.438-1.438c0-0.797-0.643-1.439-1.438-1.439
		h-0.154c-1.085,0-1.966-0.881-1.966-1.967l0.078-11.006c0-1.846,1.494-3.342,3.342-3.342c1.845,0,3.342-1.494,3.342-3.342
		l0.021-0.127c0-1.846,1.494-3.342,3.342-3.342h0.098h0.177c1.071,0,1.943,0.868,1.943,1.942l0.012,0.072
		c0,1.071,0.868,1.943,1.942,1.943c1.072,0,1.943,0.868,1.943,1.942v0.154c0,0.785,0.637,1.422,1.422,1.422s1.422-0.637,1.422-1.422
		v-0.154c0-1.07,0.869-1.942,1.943-1.942c1.071,0,1.942-0.868,1.942-1.943l0.012-0.072c0-1.071,0.753-1.942,1.824-1.942l0,0v6.824
		c0,1.559-1.263,2.82-2.82,2.82h-0.694c-1.559,0-2.821,1.264-2.821,2.82v11.876c0,3.026-2.455,5.481-5.481,5.481h-3.223
		c-3.026,0-5.481,2.456-5.481,5.482v13.645H120.875z"/>
	
		<path fill="none" stroke="#48D4BB" stroke-width="0.75" stroke-linecap="round" stroke-linejoin="round" stroke-miterlimit="10" d="
		M161.268,45.08h-0.081c-0.533,0-0.965-0.431-0.965-0.964l-0.031-0.964c0-2.305-1.868-4.173-4.173-4.173h-4.541
		c-1.589,0-2.878-1.289-2.878-2.878v-0.211c0-1.79-1.398-3.324-3.188-3.356c-1.821-0.035-3.31,1.434-3.31,3.249v0.319
		c0,2.742-2.224,4.963-4.963,4.963h-0.979v1.604c0,0.84,0.681,1.518,1.518,1.518c1.031,0,1.865,0.834,1.865,1.865
		s-0.834,1.865-1.865,1.865v0.012c-0.84,0-1.518,0.681-1.518,1.517v4.109c0,0.84,0.681,1.517,1.518,1.517h1.355
		c0.84,0,1.518,0.681,1.518,1.518l0.012,0.391v5.591c0,0.837,0.677,1.515,1.514,1.515s1.515-0.678,1.515-1.515
		c0-1.905,1.547-3.452,3.452-3.452h0.063c1.905,0,3.451-1.546,3.451-3.452v-0.119c0-1.905,1.547-3.452,3.452-3.452h0.063
		c1.905,0,3.452-1.546,3.452-3.452v-0.119c0-1.905,1.546-3.452,3.451-3.452L161.268,45.08z"/>
	
		<path fill="none" stroke="#48D4BB" stroke-width="0.75" stroke-linecap="round" stroke-linejoin="round" stroke-miterlimit="10" d="
		M141.102,40.502c0-0.9,0.729-1.63,1.63-1.63h2.534c0.475,0,0.86,0.385,0.86,0.86v2.626c0,0.237,0.193,0.431,0.432,0.431h0.196
		c0.475,0,0.86,0.385,0.86,0.86v0.24c0,0.475,0.385,0.86,0.86,0.86h0.199c0.388,0,0.701,0.313,0.701,0.701v0.941
		c0,0.388-0.313,0.701-0.701,0.701h-0.199c-0.476,0-0.86,0.385-0.86,0.86v0.252c0,0.475-0.386,0.86-0.86,0.86l-0.31-0.029
		c-1.176,0-2.132-0.953-2.132-2.131l0.021-0.223c0-0.298-0.24-0.539-0.538-0.539h-0.159c-0.299,0-0.539-0.241-0.539-0.539v-2.242
		c0-0.475-0.385-0.86-0.86-0.86h-0.252c-0.475,0-0.859-0.385-0.859-0.86L141.102,40.502z"/>
	
		<path fill="none" stroke="#48D4BB" stroke-width="0.75" stroke-linecap="round" stroke-linejoin="round" stroke-miterlimit="10" d="
		M158.456,39.761l-3.869,3.869c-1.083,1.083-2.838,1.083-3.921,0l0,0c-1.083-1.083-1.083-2.838,0-3.921l0.724-0.724h4.929
		C156.318,38.985,157.469,39.022,158.456,39.761z"/>
	
		<path fill="none" stroke="#48D4BB" stroke-width="0.75" stroke-linecap="round" stroke-linejoin="round" stroke-miterlimit="10" d="
		M136.205,41.064l-7.008-0.009c-2.742,0-4.963,2.224-4.963,4.963v0.42c0,1.094-0.356,2.108-0.956,2.93l-0.018-0.014
		c1.862,0,3.371,1.508,3.371,3.371v0.116c0,1.862,1.509,3.371,3.37,3.371h0.063c1.862,0,3.371,1.509,3.371,3.371v0.116
		c0,1.862,1.509,3.371,3.371,3.371h0.063c1.861,0,3.37,1.509,3.37,3.371c0,0.817,0.663,1.48,1.48,1.48
		c0.816,0,1.479-0.663,1.479-1.48l0.037-1.248c0-0.611-0.495-1.109-1.108-1.109c-0.837,0-1.515-0.678-1.515-1.515v-5.586
		l-0.012-0.391c0-0.84-0.681-1.518-1.518-1.518h-1.355c-0.839,0-1.517-0.68-1.517-1.517v-4.109c0-0.839,0.681-1.517,1.517-1.517
		v-0.012c1.031,0,1.865-0.834,1.865-1.865s-0.834-1.865-1.865-1.865c-0.839,0-1.517-0.681-1.517-1.518v-1.607H136.205z"/>
	
		<path fill="none" stroke="#48D4BB" stroke-width="0.75" stroke-linecap="round" stroke-linejoin="round" stroke-miterlimit="10" d="
		M123.186,49.401c-0.903,1.216-2.354,2.006-3.987,2.006h-0.396c-0.768,0-1.388,0.623-1.388,1.387v7.06l-0.006,0.666v0.07
		c0,1.126,0.915,2.042,2.042,2.042h0.037c1.127,0,2.042,0.915,2.042,2.042v0.069c0,1.126,0.915,2.042,2.041,2.042h0.038
		c1.126,0,2.042,0.915,2.042,2.042l-0.079,1.752c0,0.585,0.476,1.063,1.063,1.063h9.066c0.585,0,1.063-0.475,1.063-1.063
		s0.475-1.063,1.063-1.063h1.428c0.521,0,0.944-0.423,0.944-0.944v-2.128c0-1.862-1.509-3.371-3.371-3.371h-0.063
		c-1.862,0-3.37-1.508-3.37-3.371v-0.116c0-1.862-1.509-3.371-3.371-3.371h-0.063c-1.862,0-3.371-1.509-3.371-3.371v-0.116
		c0-1.862-1.509-3.371-3.37-3.371L123.186,49.401z"/>
	
		<path fill="none" stroke="#48D4BB" stroke-width="0.75" stroke-linecap="round" stroke-linejoin="round" stroke-miterlimit="10" d="
		M102.186,74.353h6.029c0.903,0,1.636,0.733,1.636,1.636v0.139c0,1.72,1.396,3.116,3.116,3.116h11.898
		c2.699,0,4.888-2.189,4.888-4.888v-0.119c0-1.428-1.158-2.586-2.586-2.586l-0.521-0.011c-0.585,0-1.063-0.475-1.063-1.063
		l0.078-1.752c0-1.126-0.915-2.042-2.041-2.042h-0.038c-1.126,0-2.041-0.915-2.041-2.042v-0.069c0-1.126-0.915-2.042-2.042-2.042
		h-0.037c-1.127,0-2.042-0.915-2.042-2.042v-0.07l0.006-0.666h-0.006c0,4.129-3.348,7.48-7.479,7.48h-0.289
		c-3.944,0-7.173,3.052-7.46,6.921L102.186,74.353z"/>
	
		<path fill="none" stroke="#48D4BB" stroke-width="0.75" stroke-linecap="round" stroke-linejoin="round" stroke-miterlimit="10" d="
		M99.403,168.412c0.718,0.348,1.527,0.542,2.378,0.542h2.863c3.025,0,5.481,2.456,5.481,5.481v10.445
		c0,3.072,2.514,5.682,5.586,5.623c2.979-0.055,5.377-2.487,5.377-5.481v-10.3h-3.243c-2.884,0-5.221-2.337-5.221-5.221v-11.814
		c0-1.086,0.88-1.967,1.966-1.967l0.075-0.012c1.086,0,1.967-0.881,1.967-1.967s0.88-1.966,1.966-1.966h0.153
		c0.794,0,1.439-0.643,1.439-1.438c0-0.797-0.643-1.439-1.439-1.439h-0.153c-1.086,0-1.966-0.881-1.966-1.967
		c0-1.412-1.385-1.222-1.385-1.222l-10.561,0.056c-1.01,0-1.832,0.818-1.832,1.832v0.305c0,1.01-0.82,1.832-1.834,1.832h-0.196
		c-1.011,0-1.833,0.82-1.833,1.834v16.633L99.403,168.412z"/>
	
		<path fill="none" stroke="#48D4BB" stroke-width="0.75" stroke-linecap="round" stroke-linejoin="round" stroke-miterlimit="10" d="
		M98.763,168.068c-1.504-0.979-2.494-2.674-2.494-4.596v-1.379c0,0-0.012-1.742,0-2.146c0.029-1.017-0.822-1.839-1.838-1.839h-1.64
		c-2.782,0-5.042-2.256-5.042-5.041v-9.504h10.313c2.175,0,3.938-1.764,3.938-3.938v-3.388c0-2.175,1.764-3.938,3.938-3.938h0.093
		c0.524,0,0.953-0.426,0.953-0.952c0-0.524-0.426-0.953-0.953-0.953h-0.191c1.454,0,2.633-1.179,2.633-2.633v-2.564
		c0-1.454,1.179-2.633,2.632-2.633h0.704c2.565,0,4.647-2.079,4.647-4.648v-1.181c0,1.472,1.193,2.661,2.661,2.661l7.879-0.031
		h-0.127h-0.066c-1.772,0-3.209,1.436-3.209,3.208s1.437,3.208,3.209,3.208h0.177h-0.209h-0.099c-1.845,0-3.342,1.494-3.342,3.342
		l-0.02,0.127c0,1.846-1.494,3.342-3.342,3.342s-3.342,1.494-3.342,3.342l-0.078,7.856l0.049,0.532c0,0.768-0.622,1.391-1.39,1.391
		l-10.561,0.064c-1.011,0-1.833,0.818-1.833,1.832v0.305c0,1.01-0.819,1.832-1.833,1.832h-0.196c-1.012,0-1.834,0.82-1.834,1.834
		v16.633L98.763,168.068z"/>
	
		<path fill="none" stroke="#48D4BB" stroke-width="0.75" stroke-linecap="round" stroke-linejoin="round" stroke-miterlimit="10" d="
		M87.755,143.562h10.301c2.175,0,3.938-1.764,3.938-3.938v-3.388c0-2.175,1.775-3.938,3.95-3.938h0.093
		c0.524,0,0.953-0.426,0.953-0.953c0-0.523-0.426-0.952-0.953-0.952c-1.453,0-2.922-1.179-2.922-2.632v-3.455
		c0-1.453-1.178-2.633-2.632-2.633h-6.029c-1.454,0-2.632,1.18-2.632,2.633v-0.009c0,1.454-1.179,2.632-2.633,2.632h-3.605v1.906
		c0,1.016-0.822,1.838-1.838,1.838h-0.27c-1.017,0-1.839,0.822-1.839,1.84v0.162v1.176c0,2.2,1.784,3.98,3.981,3.98h0.299
		c1.016,0,1.838,0.823,1.838,1.84V143.562z"/>
	
		<path fill="none" stroke="#48D4BB" stroke-width="0.75" stroke-linecap="round" stroke-linejoin="round" stroke-miterlimit="10" d="
		M139.61,76.38c-1.905,0-3.452-1.546-3.452-3.452c0-1.906,1.547-3.452,3.452-3.452l0.408-0.046c1.905,0,3.452-1.546,3.452-3.452
		v-3.402c0-1.905,1.546-3.452,3.451-3.452h0.063c1.905,0,3.452-1.546,3.452-3.452v-0.119c0-1.905,1.546-3.452,3.451-3.452h0.064
		c1.905,0,3.451-1.546,3.451-3.452v-0.119c0-1.905,1.547-3.452,3.452-3.452l0.283,0.003c1.526,0,2.766,1.236,2.766,2.766
		c0,1.526-1.236,2.765-2.766,2.765h-0.081c-2.305,0-4.172,1.868-4.172,4.173l0.017,9.831c0,0.533,0.432,0.964,0.965,0.964h0.063
		c1.216,0,2.204,0.987,2.204,2.204s-0.988,2.204-2.204,2.204h-0.063c-1.839,0-3.33,1.491-3.33,3.33v3.07H139.61V76.38z"/>
	<g>
		
			<path fill="none" stroke="#48D4BB" stroke-width="0.75" stroke-linecap="round" stroke-linejoin="round" stroke-miterlimit="10" d="
			M117.479,60.575c0,1.138,0.924,2.062,2.062,2.062s2.062-0.924,2.062-2.062v-0.489c0-0.631,0.513-1.144,1.144-1.144l0.075,0.023
			c0.632,0,1.145-0.513,1.145-1.144v-0.408c0-0.631-0.513-1.144-1.145-1.144l-0.075,0.023c-0.631,0-1.144-0.513-1.144-1.144v-0.125
			c0-0.631-0.513-1.144-1.144-1.144h-1.854c-0.631,0-1.144,0.513-1.144,1.144h0.006v4.81L117.479,60.575z"/>
	</g>
</g>
<path fill="#36BEA0" d="M43.758,78.236h1.729c2.265,0,4.098,1.836,4.098,4.098l0,0c0,2.264-1.836,4.097-4.098,4.097h-1.729
	c-2.265,0-4.098-1.836-4.098-4.097l0,0C39.661,80.069,41.497,78.236,43.758,78.236z"/>
<path fill="#36BEA0" d="M54.07,17.278h2.146c1.294,0,2.342,1.048,2.342,2.342l0,0c0,1.294-1.048,2.343-2.342,2.343H54.07
	c-1.295,0-2.343-1.048-2.343-2.343l0,0C51.727,18.327,52.775,17.278,54.07,17.278z"/>
<path fill="#36BEA0" d="M58.011,138.781v-1.199c0-1.57,1.271-2.842,2.84-2.842l0,0c1.57,0,2.842,1.271,2.842,2.842v1.199
	c0,1.568-1.271,2.84-2.842,2.84l0,0C59.283,141.621,58.011,140.35,58.011,138.781z"/>
<path fill="#36BEA0" d="M143.817,154.059h1.347c0.811,0,1.469,0.657,1.469,1.468l0,0c0,0.812-0.658,1.468-1.469,1.468h-1.347
	c-0.811,0-1.468-0.656-1.468-1.468l0,0C142.35,154.716,143.007,154.059,143.817,154.059z"/>
<path fill="#36BEA0" d="M151.926,177.372v1.818c0,1.095-0.889,1.983-1.983,1.983l0,0c-1.095,0-1.983-0.889-1.983-1.983v-1.818
	c0-1.095,0.889-1.983,1.983-1.983l0,0C151.04,175.389,151.926,176.277,151.926,177.372z"/>
</svg>
